<?xml version="1.0" encoding="UTF-8"?><svg id="a" xmlns="http://www.w3.org/2000/svg" viewBox="0 0 512 512"><defs><style>.b{fill:#fc5615;}.c{fill:#11100f;font-family:Strasua-Regular, Strasua;font-size:62px;}</style></defs><text class="c" transform="translate(56.46 382.6)"><tspan x="0" y="0">GOsneakers</tspan></text><g><g transform="translate(0.000000,512.000000) scale(0.100000,-0.100000)"><path d="M334.26,135.28c-1.46-.46-6.27-.74-10.28-.6-5.44,.18-11.49,1.64-15.91,3.8-4.49,2.17-6.09,3.3-9.41,6.64l-2.66,2.61-4.34-.75c-8.8-1.48-15.95-4.92-20.23-9.7-3-3.3-3.79-5.35-4.63-11.93-.4-3.27-.99-6.45-1.27-7.01-.89-1.77-3.96-3.73-6.08-3.86-2.52-.14-4.63,.66-8.82,3.29-16.01,10.08-29.29,24.59-35.57,38.94l-1.64,3.66-1.82,.33-1.86,.3-5.62,7.26-5.65,7.3-.47,2.8c-.31,1.81-.17,3.72,.31,5.18l.76,2.32,47.57,35.87,47.64,35.87,1.4-.23c2.5-.46,3.5-3.03,2.03-5.35-.48-.76-15.83-12.46-46.74-35.66l-46.02-34.53-.17-1.41c-.11-1.25,.23-1.86,4.04-6.94l4.2-5.59,2.18,1.99c8.07,7.34,27.5,24.02,28.39,24.39,.61,.28,2.79-.06,5.59-.93,5.55-1.72,10.52-2.6,12.91-2.21,3.43,.48,10.01,6.23,24.68,21.49,12.17,12.75,23.41,26.13,33.66,40.12,2.69,3.71,5.95,7.84,7.21,9.26,5.09,5.57,32.47,25.01,59.38,42.05,3.55,2.26,3.73,2.8,1.02,3.15-3.16,.48-17.7-5.47-29.03-11.88-9.16-5.19-15.07-9.21-32-21.91-10.78-8.09-17.38-12.81-18.18-13.06-2.64-.76-4.83,.92-4.56,3.51l.14,1.45,20.72,15.26c21.63,16,24.6,17.94,36.71,24.17,9.96,5.14,20.77,9.29,24.71,9.56,5.47,.32,10.83-3.71,10.68-8.02-.05-1.26,.07-1.41,2.68-3.18,4.67-3.2,7.28-7.6,8.78-15.04,1.51-7.38,1.06-8.94-4.18-13.69-8.34-7.6-16.16-18.31-26.3-35.94-3.29-5.79-3.7-6.33-4.97-6.58-.76-.16-1.96,.05-2.64,.41-1.92,1.01-2.12,2.9-.51,5.8,.65,1.31,1.16,2.5,1.04,2.65-.42,.56-3.39-.22-6.28-1.57-1.58-.77-5.58-3.2-8.84-5.47-8.41-5.73-15.11-8.37-21.18-8.43-1.46,0-1.9-.26-6.92-4.37-14.07-11.55-25.83-26.79-34.22-44.51l-3.22-6.73-6.75-5.06c-6.68-5.01-6.75-5.06-8.34-4.8-2.06,.26-3.12,1.68-2.8,3.73,.2,1.6,.31,1.69,6.39,6.25l6.19,4.65,1.72,3.92c6.6,15.21,17.95,30.84,31.56,43.62l5.26,4.88-2.77,1.13c-1.51,.62-3.79,1.71-5.07,2.49-1.32,.75-2.56,1.23-2.82,1.03s-1.72-1.82-3.18-3.61c-12.32-14.73-30.52-33.51-38.25-39.37-3.89-2.98-4.5-3.32-7.14-3.84-1.61-.34-3.79-.63-4.85-.61h-1.93l-3.13-3.51c-6.35-7.15-10.62-14.2-13.06-21.52-2.18-6.42-2.71-5.94,6.8-6.03l8.25-.04,2.76,2.07c2.39,1.79,2.92,2.01,4.32,1.78,2.06-.26,3.12-1.68,2.8-3.73-.18-1.47-.49-1.83-3.48-4.07-4.06-3.05-4.37-3.11-15.14-2.97-7.65,.09-8.19,.04-8.2-.96-.05-1.96,1.37-8.12,2.44-10.7,1.21-2.94,2.37-3.93,10.54-9.46,4.92-3.3,5.86-3.77,6.38-3.37,.19,.14,.73,2.99,1.2,6.32,1.28,9.18,4.17,13.86,11.8,19,7.15,4.84,12.3,6.37,28.59,8.51,16.97,2.24,22.42,4,28.75,9.15,1.96,1.59,3.57,3.09,3.64,3.31,.04,.26-.9,.66-2.14,.9-2.58,.57-3.61,1.78-3.3,3.93,.32,2.45,1.53,3.01,5.99,2.74,2.14-.14,4.11-.12,4.34,.05,.45,.34,3.23,5.17,3.35,5.72,0,.17-1.14,.43-2.58,.57-3.05,.33-4.55,1.71-4.23,3.93,.34,2.42,2.23,3.25,6.54,2.86,2.11-.17,3.96-.23,4.11-.12,.12,.15,.89,1.54,1.69,3.19l1.42,2.93-2.94,.42c-3.43,.46-4.84,1.79-4.4,4.16,.41,2.41,1.79,2.97,6.51,2.67l4.32-.32,1.45,2.96c.83,1.61,1.5,3.05,1.53,3.25,.06,.16-1.31,.42-2.99,.49-2.64,.18-3.17,.42-4.09,1.65-.76,1.01-.98,1.77-.71,2.73,.49,2.06,1.74,2.65,5.18,2.49,1.73-.05,3.78-.14,4.54-.15l1.45-.07,2.39,4.59c2.16,4.19,2.53,4.63,3.8,4.95,.83,.21,2,.05,2.74-.39,2-1.18,2.01-2.92,.07-7-1.44-3.06-1.54-3.54-.81-4.51,1.51-2.01,.23-4.66-2.5-5.14-1.57-.24-1.65-.36-3.19-3.44-1.5-3.05-1.57-3.27-.57-4.21,.73-.74,.93-1.4,.76-2.64-.29-2.02-1.54-3.08-3.46-3-1.39,.06-1.4,0-3.06-3.23-1.58-3.17-1.64-3.33-.6-4.41,2.12-2.2,.12-5.68-3.17-5.64-1.4,0-1.44-.03-3.02-2.97-2.02-3.67-1.95-3.39-.62-3.67,1.78-.35,2.98-2.26,2.49-4.02-.51-1.96-1.63-2.8-3.72-2.73l-1.66,.04-.13-1.85c-.05-1.03-.4-6.3-.71-11.79-.72-11.55-1.29-13.27-5.57-16.42-1.34-1.01-2.77-1.9-3.15-2.01Zm1.13,10.46c.12,.85,.45,4.53,.64,8.23l.35,6.68-4.61-3.11c-6.74-4.53-12.74-6.64-23.41-8.18l-3.57-.52,1.12-1.03c2.07-1.83,7.51-4.33,11.41-5.26,3.57-.88,8.29-1.18,12.67-.81,2.63,.22,4.98,1.99,5.4,3.99Zm42.64,106.14c7.47,11.96,14.56,21.07,20.9,26.76,3.79,3.49,3.76,3.46,3.29,6.72-1.18,7.39-4.16,11.68-9.3,13.48-1.49,.51-27.44-16.8-46.48-31.03-13.45-10.04-14.28-10.72-16.03-13.2-1.01-1.45-4.19-5.76-7.07-9.62-2.88-3.85-5.29-7.17-5.32-7.43-.14-.75,6.16-3.71,9.8-4.59,1.89-.5,5.02-.78,6.93-.69,5.67,.29,8.64,1.53,17.83,7.55,10.79,6.99,15.68,8.85,20.31,7.66,1.09-.29,2.06-.49,2.1-.47,0,0,1.38,2.2,3.06,4.86Zm-145.38-106.88c-.74,12.79,4.76,26.13,16.29,39.74l.85,1.04-2.14,.67-2.16,.71-2.63-2.32c-19.03-16.67-23.22-20.4-23.23-20.7-.14-.75,2.92-7.31,5.04-10.91s7.72-11.46,8.02-11.23c.07,.06,.04,1.43-.04,3Z"/><path d="M255.39,160.84c-1.96,.05-3.55,1.94-3.27,3.9,.17,1.17,.67,1.67,6.15,5.78,5.48,4.11,6.1,4.46,7.27,4.29,1.96-.28,3.33-2.34,2.83-4.23-.36-1.38-.9-1.9-5.9-5.65-5-3.75-5.65-4.12-7.08-4.09Z"/></g><path d="M259.94,206.2c-2.68-.5-4.34,1.35-3.41,3.8,.56,1.47,1.4,2.21,10.1,8.75s9.65,7.13,11.22,7.26c2.62,.21,3.92-1.89,2.69-4.33-.89-1.78-1.78-2.56-9.72-8.52s-8.94-6.59-10.89-6.95Z"/><polygon class="b" points="102.55 286.73 128.59 303.35 319.46 303.35 102.55 286.73"/><polygon class="b" points="102.55 257.25 128.59 273.87 275.43 273.87 102.55 257.25"/></g></svg>